<svg id="gift" xmlns="http://www.w3.org/2000/svg" width="35.531" height="35.59" viewBox="0 0 35.531 35.59">
  <defs>
    <style>
      .cls-1 {
        fill: #ad4f2e;
      }

      .cls-1, .cls-2 {
        fill-rule: evenodd;
      }

      .cls-2 {
        fill: #fff;
      }
    </style>
  </defs>
  <path id="Ellipse_1_copy_6" data-name="Ellipse 1 copy 6" class="cls-1" d="M337.759,5726.76a17.79,17.79,0,1,1-17.765,17.79A17.774,17.774,0,0,1,337.759,5726.76Z" transform="translate(-320 -5726.75)"/>
  <path class="cls-2" d="M341.344,5735.58c-1.465,0-2.647,1.61-3.439,3.11-0.791-1.5-1.973-3.11-3.438-3.11a2.4,2.4,0,0,0-2.431,2.37,2.5,2.5,0,0,0,2.431,2.49h6.877a2.5,2.5,0,0,0,2.431-2.49A2.4,2.4,0,0,0,341.344,5735.58Zm-6.877,3.24a0.875,0.875,0,1,1,0-1.75c0.3,0,.965.41,1.766,1.75h-1.766Zm6.877,0h-1.766c0.8-1.34,1.463-1.75,1.766-1.75A0.875,0.875,0,1,1,341.344,5738.82Zm2.975,12.54v-7.24l-3.823-.03v8.52h2.543A1.265,1.265,0,0,0,344.319,5751.36Zm-12.8-7.24v7.24a1.265,1.265,0,0,0,1.28,1.25h2.543v-8.52Zm-1.023-1.75v2.5a1.251,1.251,0,0,0,1.023,1.22v0.03l3.823,0.1v-5.17l-3.567.07A1.265,1.265,0,0,0,330.5,5742.37Zm13.562-1.25-3.567-.07v5.17l3.823-.1v-0.03a1.252,1.252,0,0,0,1.024-1.22v-2.5A1.265,1.265,0,0,0,344.063,5741.12Zm-7.807,5.1v6.39h3.331v-11.56h-3.331v5.17Z" transform="translate(-320 -5726.75)"/>
</svg>
