<?xml version="1.0" encoding="utf-8"?>
<!-- Generator: Adobe Illustrator 20.1.0, SVG Export Plug-In . SVG Version: 6.00 Build 0)  -->
<svg version="1.1" id="weather" xmlns="http://www.w3.org/2000/svg" xmlns:xlink="http://www.w3.org/1999/xlink" x="0px" y="0px"
	 viewBox="0 0 35.5 35.6" style="enable-background:new 0 0 35.5 35.6;" xml:space="preserve">
<style type="text/css">
	.st0{fill:#76B9D7;}
	.st1{fill:#FFFFFF;}
</style>
<path id="Ellipse_1_copy_2" class="st0" d="M17.8,0c9.8,0,17.8,7.9,17.8,17.8c0,9.8-7.9,17.8-17.8,17.8C8,35.6,0,27.6,0,17.8l0,0
	C0,8,7.9,0,17.8,0L17.8,0z"/>
<g>
	<g>
		<g>
			<path class="st1" d="M17.8,24.5c-0.7,0-1.3,0.6-1.3,1.3v1.3c0,0.7,0.6,1.3,1.3,1.3c0.7,0,1.3-0.6,1.3-1.3v-1.3
				C19.1,25.1,18.5,24.5,17.8,24.5z M11.1,22.6l-0.6,0.6c-0.5,0.5-0.5,1.4,0,1.9c0.5,0.5,1.4,0.5,1.9,0l0.6-0.6
				c0.5-0.5,0.5-1.4,0-1.9C12.5,22.1,11.7,22.1,11.1,22.6z M24.5,22.6c-0.5-0.5-1.4-0.5-1.9,0c-0.5,0.5-0.5,1.4,0,1.9l0.6,0.6
				c0.5,0.5,1.4,0.5,1.9,0c0.5-0.5,0.5-1.4,0-1.9L24.5,22.6z M12.5,10.6c-0.5-0.5-1.4-0.5-1.9,0c-0.5,0.5-0.5,1.4,0,1.9l0.6,0.6
				c0.5,0.5,1.4,0.5,1.9,0c0.5-0.5,0.5-1.4,0-1.9L12.5,10.6z M11.1,17.8c0-0.7-0.6-1.3-1.3-1.3H8.5c-0.7,0-1.3,0.6-1.3,1.3
				c0,0.7,0.6,1.3,1.3,1.3h1.3C10.5,19.1,11.1,18.5,11.1,17.8z M27.1,16.6h-1.3c-0.7,0-1.3,0.6-1.3,1.3c0,0.7,0.6,1.3,1.3,1.3h1.3
				c0.7,0,1.3-0.6,1.3-1.3C28.5,17.2,27.9,16.6,27.1,16.6z"/>
		</g>
	</g>
	<path class="st1" d="M19.1,8.5c0-0.7-0.6-1.3-1.3-1.3l0,0c-0.7,0-1.3,0.6-1.3,1.3v1.3c0,0.7,0.6,1.3,1.3,1.3l0,0
		c0.7,0,1.3-0.6,1.3-1.3V8.5z"/>
	<path class="st1" d="M23.1,10.6c0.5-0.5,1.4-0.5,1.9,0l0,0c0.5,0.5,0.5,1.4,0,1.9L24.5,13c-0.5,0.5-1.4,0.5-1.9,0l0,0
		c-0.5-0.5-0.5-1.4,0-1.9L23.1,10.6z"/>
</g>
<g>
</g>
<circle class="st1" cx="17.8" cy="17.8" r="5.2"/>
</svg>
