<svg id="location" xmlns="http://www.w3.org/2000/svg" width="35.531" height="35.59" viewBox="0 0 35.531 35.59">
  <defs>
    <style>
      .cls-1 {
        fill: #f6b357;
      }

      .cls-1, .cls-2 {
        fill-rule: evenodd;
      }

      .cls-2 {
        fill: #fff;
      }
    </style>
  </defs>
  <path id="Ellipse_1_copy_4" data-name="Ellipse 1 copy 4" class="cls-1" d="M602.879,5726.47a17.8,17.8,0,1,1-17.764,17.79A17.78,17.78,0,0,1,602.879,5726.47Z" transform="translate(-585.125 -5726.47)"/>
  <path id="location_active" data-name="location active" class="cls-2" d="M612,5743.43h-1.912a7.068,7.068,0,0,0-6.032-6.13v-2.01h-1.82v2a7.073,7.073,0,0,0-6.09,5.98h-2.019v1.82h1.988a7.054,7.054,0,0,0,5.955,6.2v1.95h1.821v-1.92a7.051,7.051,0,0,0,6.186-6.06H612v-1.83Zm-8.109,5.55v-2.06h-1.821v2.01a4.751,4.751,0,0,1-3.616-3.84h1.961v-1.82H598.5a4.747,4.747,0,0,1,3.734-3.63v1.97h1.82v-1.95a4.73,4.73,0,0,1,3.689,3.77h-2.034v1.83h2.018A4.758,4.758,0,0,1,603.886,5748.98Z" transform="translate(-585.125 -5726.47)"/>
</svg>
