<svg id="veget" xmlns="http://www.w3.org/2000/svg" width="35.531" height="35.56" viewBox="0 0 35.531 35.56">
  <defs>
    <style>
      .cls-1 {
        fill: #90c577;
      }

      .cls-1, .cls-2 {
        fill-rule: evenodd;
      }

      .cls-2 {
        fill: #fff;
      }
    </style>
  </defs>
  <path id="Ellipse_1_copy_7" data-name="Ellipse 1 copy 7" class="cls-1" d="M337.764,5784.92A17.8,17.8,0,1,1,320,5802.72,17.782,17.782,0,0,1,337.764,5784.92Z" transform="translate(-320 -5784.94)"/>
  <path class="cls-2" d="M346.41,5798.12c-1.331-.12-2.418.71-2.284,0.26s1.756-2.21,1.512-2.68-2.631,1.6-2.975,1.35,0.7-3.43.125-3.43-1.546,2.52-2.081,2.62-0.408-2.83-1.054-2.63-0.82,2.25-.854,3.14a2.306,2.306,0,0,0,.548,1.55c0.274,0.55.865,0.48,1.517,1s0.508,0.9.993,1.16,1.2,0.19,2.289-.37S347.742,5798.23,346.41,5798.12Zm-6.082,1.94c-1.157-.93-2.7-1.82-3.97-0.8-4.8,3.89-6.8,11.32-5.359,12.48,1.09,0.87,9.564-4.91,10.909-8.49C342.511,5801.64,341.112,5800.69,340.328,5800.06Zm-6.136.3-0.558.7,3.174,2.56Zm-1.615,2.85-0.559.71,2.778,2.24Zm-1.725,3-0.558.7,2.381,1.92Z" transform="translate(-320 -5784.94)"/>
</svg>
