<svg id="bday" xmlns="http://www.w3.org/2000/svg" width="35.531" height="35.59" viewBox="0 0 35.531 35.59">
  <defs>
    <style>
      .cls-1 {
        fill: #9989d8;
      }

      .cls-2 {
        fill: #fff;
        fill-rule: evenodd;
      }
    </style>
  </defs>
  <circle id="Ellipse_1_copy_8" data-name="Ellipse 1 copy 8" class="cls-1" cx="17.765" cy="17.795" r="17.765"/>
  <path id="Shape_8_copy" data-name="Shape 8 copy" class="cls-2" d="M603.258,5795.89a0.856,0.856,0,1,0-.82-0.86,0.838,0.838,0,0,0,.82.86m-2.992,0a0.856,0.856,0,1,0-.82-0.86,0.838,0.838,0,0,0,.82.86m6,0a0.856,0.856,0,1,0-.82-0.86,0.837,0.837,0,0,0,.82.86m5.222,4.86a1.989,1.989,0,0,0-1.942-1.9H606.8v-1.67a0.547,0.547,0,1,0-1.093,0v1.67h-1.919v-1.67a0.548,0.548,0,1,0-1.094,0v1.67h-1.9v-1.67a0.547,0.547,0,1,0-1.093,0v1.67h-2.774a2,2,0,0,0-1.929,2.04,2.031,2.031,0,0,0,1.262,1.9v0.01a1.927,1.927,0,0,0,.681.13h0.007c0.023,0,.046-0.01.068-0.01a0.948,0.948,0,0,0,.169-0.01c0.033-.01.066-0.01,0.1-0.02a1.645,1.645,0,0,0,.221-0.05l0.069-.03a1.415,1.415,0,0,0,.194-0.08c0.014,0,.028-0.01.04-0.01a2,2,0,0,0,.217-0.14,0.072,0.072,0,0,1,.037-0.02,1.761,1.761,0,0,0,.205-0.18h0a2.017,2.017,0,0,0,.192-0.22h0a1.928,1.928,0,0,0,.289-0.51h0a0.266,0.266,0,0,1,.05-0.08,0.3,0.3,0,0,1,.246-0.13,0.33,0.33,0,0,1,.288.2,0.028,0.028,0,0,1,.006.02s0,0,0,.01a1.874,1.874,0,0,0,.2.37,0.182,0.182,0,0,1,.02.04c0.04,0.05.083,0.11,0.128,0.16,0,0,0,.01,0,0.01,0.048,0.05.1,0.1,0.151,0.15a1.884,1.884,0,0,0,.566.37,0.081,0.081,0,0,0,.043.02,2,2,0,0,0,.245.08c0.028,0.01.055,0.01,0.083,0.02,0.044,0.01.089,0.01,0.135,0.02s0.088,0.01.133,0.01h0.17a0.813,0.813,0,0,0,.156-0.01c0.037-.01.073-0.01,0.11-0.02a1.412,1.412,0,0,0,.2-0.05l0.1-.03,0.141-.06,0.109-.06c0.054-.03.107-0.06,0.157-0.09l0.081-.06a1.485,1.485,0,0,0,.17-0.14c0.022-.02.041-0.05,0.062-0.07,0.042-.04.084-0.09,0.122-0.13a0.329,0.329,0,0,0,.048-0.07c0.047-.06.092-0.13,0.131-0.19a0.034,0.034,0,0,1,.012-0.02,2.958,2.958,0,0,0,.125-0.27h0c0-.01,0-0.01,0-0.01a0.331,0.331,0,0,1,.289-0.2,0.309,0.309,0,0,1,.259.15,0.234,0.234,0,0,1,.04.07,1.755,1.755,0,0,0,.113.23,0.758,0.758,0,0,0,.057.1c0.025,0.04.052,0.08,0.078,0.12s0.055,0.07.085,0.11c0.021,0.02.042,0.05,0.064,0.07a0.935,0.935,0,0,0,.107.11c0.022,0.02.047,0.04,0.07,0.06s0.052,0.05.078,0.07,0.076,0.05.116,0.08,0.054,0.03.081,0.05a1.422,1.422,0,0,0,.194.1c0.032,0.01.065,0.03,0.1,0.04s0.082,0.03.123,0.05c0.062,0.01.127,0.03,0.191,0.04,0.04,0.01.08,0.01,0.121,0.02a0.7,0.7,0,0,0,.144.01c0.029,0,.056.01,0.085,0.01s0.059-.01.088-0.01a0.642,0.642,0,0,0,.139-0.01c0.044-.01.086-0.01,0.127-0.02a1.033,1.033,0,0,0,.171-0.04c0.05-.02.1-0.03,0.149-0.05l0.075-.03a2.064,2.064,0,0,0,.241-0.13c0.013-.01.025-0.01,0.037-0.02,0.046-.03.092-0.07,0.135-0.1,0,0,0,0,.007-0.01a1,1,0,0,0,.129-0.11c0.046-.04.089-0.09,0.131-0.13,0.01-.01.022-0.03,0.032-0.04,0.037-.04.072-0.09,0.105-0.13a0.793,0.793,0,0,1,.053-0.08c0.028-.05.054-0.09,0.079-0.13,0.029-.06.054-0.11,0.079-0.17,0.008-.02.017-0.03,0.024-0.05s0-.01,0-0.02a0.047,0.047,0,0,0,0-.01,0.33,0.33,0,0,1,.288-0.2,0.306,0.306,0,0,1,.258.15,0.034,0.034,0,0,1,.015.02,0.038,0.038,0,0,1,.008.02s0.006,0,.008.01,0.006,0.01.009,0.02a0.153,0.153,0,0,0,.018.04,2.342,2.342,0,0,0,.2.37h0a1.434,1.434,0,0,0,.134.17s0,0.01,0,.01c0.048,0.05.1,0.1,0.151,0.15a1.921,1.921,0,0,0,.57.38c0.011,0,.021.01,0.032,0.01a1.829,1.829,0,0,0,.468.12,0.579,0.579,0,0,0,.132.01c0.031,0,.063.01,0.094,0.01h0a1.933,1.933,0,0,0,.683-0.13v-0.01a1.928,1.928,0,0,0,.5-0.29s0.007,0,.01-0.01a1.287,1.287,0,0,0,.2-0.19l0.028-.03a1.466,1.466,0,0,0,.139-0.17c0.013-.02.027-0.04,0.039-0.06a1.619,1.619,0,0,0,.118-0.2c0.017-.04.032-0.07,0.047-0.11s0.037-.09.053-0.13a1.519,1.519,0,0,0,.059-0.2c0.01-.04.02-0.08,0.029-0.12s0.016-.1.023-0.16q0-.045.006-0.09c0-.05.007-0.09,0.007-0.14s0-.09,0-0.14m-4.04,2.44a8.25,8.25,0,0,0-6.308.88,2.948,2.948,0,0,0-4.2,0,3.06,3.06,0,0,1-.682-0.08v4.95h13.97v-4.95a3.11,3.11,0,0,1-.686.08,2.981,2.981,0,0,1-2.092-.88" transform="translate(-585.469 -5784.63)"/>
</svg>
