<svg id="reward" xmlns="http://www.w3.org/2000/svg" width="35.5" height="35.59" viewBox="0 0 35.5 35.59">
  <defs>
    <style>
      .cls-1 {
        fill: #e98143;
      }

      .cls-2 {
        fill: #fff;
        fill-rule: evenodd;
      }
    </style>
  </defs>
  <circle id="Ellipse_1_copy_9" data-name="Ellipse 1 copy 9" class="cls-1" cx="17.75" cy="17.795" r="17.75"/>
  <path id="badge" class="cls-2" d="M603.212,5865.03a5.3,5.3,0,0,1-3.319-1.15v5.58l3.319-3.2,3.319,3.2v-5.58A5.306,5.306,0,0,1,603.212,5865.03Zm5.537-7.31a1.075,1.075,0,0,1-.192-1.29,1.076,1.076,0,0,0,.032-0.98,1.149,1.149,0,0,0-.782-0.62,1.1,1.1,0,0,1-.881-0.98,1.1,1.1,0,0,0-.518-0.84,1.145,1.145,0,0,0-1-.11,1.154,1.154,0,0,1-1.291-.37,1.164,1.164,0,0,0-1.807,0,1.154,1.154,0,0,1-1.291.37,1.144,1.144,0,0,0-1,.11,1.1,1.1,0,0,0-.518.84,1.1,1.1,0,0,1-.881.98,1.152,1.152,0,0,0-.782.62,1.079,1.079,0,0,0,.032.98,1.075,1.075,0,0,1-.192,1.29,1.088,1.088,0,0,0-.314.93,1.118,1.118,0,0,0,.571.81,1.078,1.078,0,0,1,.559,1.18,1.084,1.084,0,0,0,.254.95,1.159,1.159,0,0,0,.93.38,1.133,1.133,0,0,1,1.131.7,1.144,1.144,0,0,0,.741.67,1.2,1.2,0,0,0,.993-0.17,1.15,1.15,0,0,1,1.346,0,1.2,1.2,0,0,0,.992.17,1.144,1.144,0,0,0,.741-0.67,1.134,1.134,0,0,1,1.132-.7,1.157,1.157,0,0,0,.929-0.38,1.081,1.081,0,0,0,.254-0.95,1.079,1.079,0,0,1,.559-1.18,1.113,1.113,0,0,0,.571-0.81A1.088,1.088,0,0,0,608.749,5857.72Z" transform="translate(-585.281 -5842.13)"/>
</svg>
