<svg  width="90" xmlns="http://www.w3.org/2000/svg" viewBox="0 0 250 104.41"><defs><style>.a{fill:#000;}.b{fill:#FACD1F;}</style></defs><title>Artboard 1</title><polygon class="a" points="250 104.38 218.37 72.75 180.66 72.75 179.22 72.75 150.49 44.02 127.14 44.02 112.78 44.02 88.53 44.02 64.11 68.44 39.69 44.02 31.25 44.02 0.37 44.02 0 44.02 0 104.3 31.25 104.3 31.25 72.75 59.8 72.75 68.42 72.75 98.41 72.75 119.96 51.2 141.51 72.75 109.88 104.38 149 104.41 179.94 73.47 210.87 104.41 250 104.38"></polygon><path class="b" d="M201,94.49A48.83,48.83,0,0,0,183.61,0V28.73a20.11,20.11,0,0,1,0,40.23h-1.06a20.05,20.05,0,0,1-11.3-4.17Z"></path></svg>