<?xml version="1.0" encoding="UTF-8"?>
<svg width="101px" height="50px" viewBox="0 0 101 50" version="1.1" xmlns="http://www.w3.org/2000/svg" xmlns:xlink="http://www.w3.org/1999/xlink">
    <!-- Generator: Sketch 53.2 (72643) - https://sketchapp.com -->
    <title>logo</title>
    <desc>Created with Sketch.</desc>
    <g id="Page-1" stroke="none" stroke-width="1" fill="#000000" fill-rule="evenodd">
        <g id="Home" transform="translate(-50.000000, -50.000000)" fill="#000000" fill-rule="nonzero">
            <g id="logo" transform="translate(50.000000, 50.000000)">
                <path d="M22.9800499,2.01995012 C10.286783,2.01995012 0,12.3067332 0,24.9875312 C0,37.6683292 10.286783,47.967581 22.9800499,47.967581 C35.6733167,47.967581 45.9600998,37.680798 45.9600998,24.9875312 C45.9600998,12.2942643 35.6608479,2.01995012 22.9800499,2.01995012 Z M22.9800499,35.0623441 C17.4189526,35.0623441 12.9052369,30.5486284 12.9052369,24.9875312 C12.9052369,19.4264339 17.4189526,14.9127182 22.9800499,14.9127182 C28.5411471,14.9127182 33.0548628,19.4264339 33.0548628,24.9875312 C33.0548628,30.5486284 28.5411471,35.0623441 22.9800499,35.0623441 Z" id="Shape"></path>
                <polygon id="Path" points="83.1795511 7.9925187 75.1870324 0 50.1870324 24.9875312 75.1870324 49.9875312 83.1795511 41.9825436 66.1845387 24.9875312"></polygon>
                <polygon id="Path" points="83.6783042 24.9875312 91.9326683 16.7456359 86.1845387 10.9975062 72.1820449 24.9875312 86.1845387 38.9900249 91.9326683 33.2418953 86.1845387 27.4937656"></polygon>
                <polygon id="Path" transform="translate(94.422025, 24.989357) rotate(-45.001000) translate(-94.422025, -24.989357) " points="90.3571875 20.9245194 98.4868633 20.9245194 98.4868633 29.0541952 90.3571875 29.0541952"></polygon>
            </g>
        </g>
    </g>
</svg>