<svg width="200px" height="97px" viewBox="0 0 200 97" version="1.1" xmlns="http://www.w3.org/2000/svg" xmlns:xlink="http://www.w3.org/1999/xlink"><defs><polygon id="path-1" points="0 0.3706 199.9996 0.3706 199.9996 43.9996 0 43.9996"/></defs><g id="Desktop" stroke="none" stroke-width="1" fill="none" fill-rule="evenodd"><g id="Footer---Datenschutz-" transform="translate(-223.000000, -58.000000)"><g id="Group-4"><g id="Logo---WMS-Block" transform="translate(223.000000, 58.000000)"><g id="Group-3" transform="translate(0.000000, 52.968100)"><mask id="mask-2" fill="white"><use xlink:href="#path-1"/></mask><g id="Clip-2"/><path d="M18.7286,19.8976 C9.8436,18.0886 4.2566,16.9176 4.2566,11.2786 C4.2566,6.1176 8.8856,3.0316 18.5686,3.0316 C29.1036,3.0316 34.6906,7.2346 34.6906,14.6306 L37.3506,14.6306 C37.3506,5.5316 30.2216,0.3706 18.5686,0.3706 C7.9806,0.3706 1.5966,4.2546 1.5966,11.2786 C1.5966,18.8336 8.4066,20.3766 17.9836,22.3986 C28.0396,24.5266 35.2226,25.1646 35.2226,33.0926 C35.2226,38.4666 31.5516,41.3396 20.8566,41.3396 C10.0026,41.3396 2.6606,36.9766 2.6606,28.1446 L-0.0004,28.1446 C-0.0004,38.3606 8.3006,43.9996 20.8566,43.9996 C32.8816,43.9996 37.8826,40.0626 37.8826,33.0926 C37.8826,23.6756 29.9016,22.1856 18.7286,19.8976 L18.7286,19.8976 Z M57.8886,0.9026 L42.1396,0.9026 L42.1396,3.5636 L48.6836,3.5636 L48.6836,43.4676 L51.3436,43.4676 L51.3436,3.5636 L57.8886,3.5636 L57.8886,0.9026 Z M72.6796,0.3706 C66.7736,0.3706 64.2726,3.4036 64.2726,11.9696 L64.2726,32.4006 C64.2726,40.9676 66.7736,43.9996 72.6796,43.9996 C78.5856,43.9996 81.0856,40.9676 81.0856,32.4006 L81.0856,11.9696 C81.0856,3.4036 78.5856,0.3706 72.6796,0.3706 L72.6796,0.3706 Z M78.4256,32.9326 C78.4256,39.2116 77.0956,41.3396 72.6796,41.3396 C68.2636,41.3396 66.9336,39.2116 66.9336,32.9326 L66.9336,11.4376 C66.9336,5.1596 68.2636,3.0316 72.6796,3.0316 C77.0956,3.0316 78.4256,5.1596 78.4256,11.4376 L78.4256,32.9326 Z M123.4906,39.6906 L123.4906,37.3496 C123.4906,30.6986 121.0966,27.4526 116.5746,25.8566 C120.8306,24.3666 123.4376,21.1216 123.4376,13.9916 C123.4376,4.7336 118.2766,0.9026 108.6466,0.9026 L88.5346,0.9026 L88.5346,43.4676 L91.1946,43.4676 L91.1946,27.0806 L102.7936,27.0806 C113.3286,27.0806 120.8306,27.2936 120.8306,37.3496 L120.8306,39.6906 C120.8306,41.2866 120.8836,42.8296 121.4156,43.4676 L124.0766,43.4676 C123.5446,42.8296 123.4906,41.2866 123.4906,39.6906 L123.4906,39.6906 Z M91.1946,24.4206 L91.1946,3.5636 L108.6466,3.5636 C115.9886,3.5636 120.7776,5.4256 120.7776,13.9916 C120.7776,24.8986 114.3926,24.4206 107.0506,24.4206 L91.1946,24.4206 Z M132.0566,43.4676 L134.7166,43.4676 L134.7166,0.9026 L132.0566,0.9026 L132.0566,43.4676 Z M156.2646,3.5636 L156.2646,0.9026 L144.2936,0.9026 L144.2936,43.4676 L156.2646,43.4676 L156.2646,40.8076 L146.9536,40.8076 L146.9536,23.5156 L156.2646,23.5156 L156.2646,20.8556 L146.9536,20.8556 L146.9536,3.5636 L156.2646,3.5636 Z M180.8456,19.8976 C171.9606,18.0886 166.3736,16.9176 166.3736,11.2786 C166.3736,6.1176 171.0026,3.0316 180.6866,3.0316 C191.2206,3.0316 196.8076,7.2346 196.8076,14.6306 L199.4676,14.6306 C199.4676,5.5316 192.3386,0.3706 180.6866,0.3706 C170.0986,0.3706 163.7136,4.2546 163.7136,11.2786 C163.7136,18.8336 170.5236,20.3766 180.1006,22.3986 C190.1566,24.5266 197.3396,25.1646 197.3396,33.0926 C197.3396,38.4666 193.6686,41.3396 182.9746,41.3396 C172.1196,41.3396 164.7776,36.9766 164.7776,28.1446 L162.1176,28.1446 C162.1176,38.3606 170.4176,43.9996 182.9746,43.9996 C194.9986,43.9996 199.9996,40.0626 199.9996,33.0926 C199.9996,23.6756 192.0196,22.1856 180.8456,19.8976 L180.8456,19.8976 Z" id="Fill-1" fill="#000000" mask="url(#mask-2)"/></g><path d="M186.3387,0.0003 L186.3387,42.5653 L198.3097,42.5653 L198.3097,39.9043 L188.9987,39.9043 L188.9987,22.6133 L198.3097,22.6133 L198.3097,19.9523 L188.9987,19.9523 L188.9987,2.6603 L198.3097,2.6603 L198.3097,0.0003 L186.3387,0.0003 Z M177.0277,0.0003 L164.6297,21.2823 L177.0277,42.5653 L179.9537,42.5653 L167.6627,21.2823 L179.9537,0.0003 L177.0277,0.0003 Z M161.9707,42.5653 L164.6307,42.5653 L164.6307,0.0003 L161.9707,0.0003 L161.9707,42.5653 Z M145.0507,0.0003 L137.9737,42.5653 L140.6337,42.5653 L142.2837,32.6683 L151.8077,32.6683 L153.4567,42.5653 L156.1177,42.5653 L149.0407,0.0003 L145.0507,0.0003 Z M147.0717,3.9913 L151.3817,30.0083 L142.7097,30.0083 L147.0717,3.9913 Z M130.5247,0.0003 L107.9647,39.5853 L85.4057,0.0003 L82.7447,0.0003 L82.7447,42.5653 L85.4057,42.5653 L85.4057,5.3203 L106.6347,42.5653 L109.2947,42.5653 L130.5247,5.3203 L130.5247,42.5653 L133.1847,42.5653 L133.1847,0.0003 L130.5247,0.0003 Z M42.9477,0.0003 L42.9477,42.5653 L71.1477,42.5653 L71.1477,39.9043 L45.6087,39.9043 L45.6087,22.6133 L71.1477,22.6133 L71.1477,19.9523 L45.6087,19.9523 L45.6087,2.6603 L71.1477,2.6603 L71.1477,0.0003 L42.9477,0.0003 Z M36.4567,0.0003 L22.6237,35.7013 L22.6237,0.0003 L19.8567,0.0003 L6.0767,35.7013 L6.0767,0.0003 L3.4167,0.0003 L3.4167,42.5653 L6.1827,42.5653 L19.9627,6.8633 L19.9627,42.5653 L22.7297,42.5653 L39.2237,0.0003 L36.4567,0.0003 Z" id="Fill-4" fill="#000000"/></g></g></g></g></svg>