<svg xmlns="http://www.w3.org/2000/svg" width="148" height="19" viewBox="0 0 148 19">
  <g fill="#000000" stroke="#000000" fill-rule="evenodd">
    <polygon points="13.204 0 9.439 12.946 5.7 0 0 0 6.112 18.439 12.121 18.439 18.156 0"/>
    <polygon points="29.452 18.439 34.79 18.439 34.79 0 29.452 0"/>
    <polygon points="47.555 0 47.555 18.439 60.708 18.439 60.708 14.364 52.816 14.364 52.816 11.011 58.774 11.011 58.774 7.247 52.816 7.247 52.816 4.074 60.295 4.074 60.295 0"/>
    <polygon points="84.305 0 84.305 10.393 78.399 0 72.441 0 72.441 18.439 77.083 18.439 77.083 6.86 83.814 18.439 88.921 18.439 88.921 0"/>
    <polygon points="113.446 0 113.446 10.393 107.54 0 101.583 0 101.583 18.439 106.225 18.439 106.225 6.86 112.956 18.439 118.063 18.439 118.063 0"/>
    <path d="M135.1863,0.0002 L129.2803,18.4392 L134.2063,18.4392 L135.1863,15.0092 L141.2983,15.0092 L142.2783,18.4392 L147.8743,18.4392 L142.0213,0.0002 L135.1863,0.0002 Z M138.2553,4.2802 L140.2673,11.3722 L136.2173,11.3722 L138.2553,4.2802 Z"/>
  </g>
</svg>
