<?xml version="1.0" standalone="no"?>
<!DOCTYPE svg PUBLIC "-//W3C//DTD SVG 20010904//EN"
 "http://www.w3.org/TR/2001/REC-SVG-20010904/DTD/svg10.dtd">
<svg version="1.0" xmlns="http://www.w3.org/2000/svg"
 width="260.000000pt" height="260.000000pt" viewBox="0 0 260.000000 260.000000"
 preserveAspectRatio="xMidYMid meet">
<metadata>
Created by potrace 1.11, written by Peter Selinger 2001-2013
</metadata>
<g transform="translate(0.000000,260.000000) scale(0.100000,-0.100000)"
fill="#000000" stroke="none">
<path d="M1108 2280 c-380 -80 -671 -352 -772 -720 -26 -92 -28 -111 -31 -245
-5 -207 42 -376 154 -555 33 -53 131 -167 176 -205 26 -22 53 -45 59 -50 47
-44 192 -119 285 -150 264 -87 529 -68 776 58 101 52 149 86 234 167 88 84
150 167 199 266 79 160 105 266 106 434 1 177 -18 279 -77 415 -133 305 -399
517 -742 591 -74 16 -280 13 -367 -6z"/>
</g>
</svg>
