<?xml version="1.0" encoding="UTF-8"?>
<svg width="24px" height="21px" viewBox="0 0 24 21" version="1.1" xmlns="http://www.w3.org/2000/svg" xmlns:xlink="http://www.w3.org/1999/xlink">
    <!-- Generator: Sketch 58 (84663) - https://sketch.com -->
    <title>twitter</title>
    <desc>Created with Sketch.</desc>
    <g id="Page-1" stroke="none" stroke-width="1" fill="none" fill-rule="evenodd" stroke-linecap="round" stroke-linejoin="round">
        <g id="Contact" transform="translate(-402.000000, -1159.000000)" stroke="#000000" stroke-width="2">
            <g id="Group-4" transform="translate(103.000000, 1114.000000)">
                <g id="Group-2">
                    <g id="Group" transform="translate(0.000000, 44.000000)">
                        <g id="twitter" transform="translate(300.000000, 2.000000)">
                            <path d="M22,0.010294634 C21.042385,0.687884273 19.9821079,1.20613163 18.86,1.54507897 C17.6263595,0.122181209 15.63837,-0.376797727 13.8820815,0.29563756 C12.125793,0.968072846 10.9748003,2.66888305 11,4.55446004 L11,5.55758706 C7.43066483,5.65042887 4.05202531,3.94452922 2,1.01342165 C2,1.01342165 -2,10.0415648 7,14.0540729 C4.94052756,15.4564107 2.48715691,16.1595657 0,16.060327 C9,21.0759621 20,16.060327 20,4.52436622 C19.9990791,4.24494884 19.9722975,3.96622073 19.92,3.6917708 C20.9406031,2.68211651 21.6608274,1.40736246 22,0.010294634 Z" id="Path"></path>
                        </g>
                    </g>
                </g>
            </g>
        </g>
    </g>
</svg>