<svg xmlns="http://www.w3.org/2000/svg" xmlns:xlink="http://www.w3.org/1999/xlink" width="220" height="870"><symbol id="i-arrow" viewBox="0 0 26 30"><title>Combined Shape</title><path d="M43.592 32.136L30.864 44.864 18.136 32.136l2.828-2.828 9.9 9.9 9.9-9.9 2.828 2.828zm-10.728 3h-4v-20h4v20z" transform="translate(-18 -15)" fill-rule="evenodd"/></symbol><use xlink:href="#i-arrow" width="26" height="30"/><symbol id="i-close" viewBox="0 0 26 26"><title>X</title><path d="M30 32.828l-9.9 9.9-2.828-2.829 9.9-9.899L30 32.828zM42.728 39.9l-2.829 2.829-9.899-9.9L32.828 30l9.9 9.9zM30 27.172L27.172 30l-9.9-9.9 2.829-2.828 9.899 9.9zM42.728 20.1l-9.9 9.9L30 27.172l9.9-9.9 2.828 2.829z" transform="translate(-17 -17)" fill-rule="evenodd"/></symbol><use xlink:href="#i-close" y="30" width="26" height="26"/><symbol id="i-grid" viewBox="0 0 40 40"><title>Combined Shape</title><path d="M9 31H1v8h8v-8zm15 0h-8v8h8v-8zm15 0h-8v8h8v-8zM9 16H1v8h8v-8zm15 0h-8v8h8v-8zm15 0h-8v8h8v-8zM9 1H1v8h8V1zm15 0h-8v8h8V1zm15 0h-8v8h8V1z" stroke-width="2" fill="none" fill-rule="evenodd"/></symbol><use xlink:href="#i-grid" y="56" width="40" height="40"/><symbol id="i-memories" viewBox="0 0 104 226"><title>Icon: Explore</title><g stroke="#FFF" stroke-width="4" fill="none" fill-rule="evenodd"><path d="M92.337 48.718c-6.289-3.892-24.624-7.369-44.554-7.369C22.497 41.35 2 45.836 2 51.372c0 5.534 20.497 10.022 45.783 10.022 0 0 68.409 1.063 50.983-30.94"/><path d="M92.337 23.89c-6.289-3.89-24.624-7.367-44.554-7.367C22.497 16.522 2 21.008 2 26.544c0 5.535 20.497 10.022 45.783 10.022 0 0 53.825.684 53.825-18.602C101.608 1.782 50.896 2 50.896 2m41.441 71.546c-6.289-3.892-24.624-7.37-44.554-7.37C22.497 66.177 2 70.665 2 76.2c0 5.534 20.497 10.022 45.783 10.022 0 0 68.409 1.062 50.983-30.94"/><path d="M92.337 98.373c-6.289-3.891-24.624-7.369-44.554-7.369C22.497 91.004 2 95.491 2 101.027c0 5.535 20.497 10.022 45.783 10.022 0 0 68.409 1.063 50.983-30.94"/><path d="M92.337 123.2c-6.289-3.89-24.624-7.368-44.554-7.368C22.497 115.832 2 120.319 2 125.855c0 5.534 20.497 10.022 45.783 10.022 0 0 68.409 1.063 50.983-30.94"/><path d="M92.337 148.028c-6.289-3.891-24.624-7.368-44.554-7.368C22.497 140.66 2 145.146 2 150.682c0 5.535 20.497 10.022 45.783 10.022 0 0 68.409 1.063 50.983-30.939"/><path d="M92.337 172.856c-6.289-3.892-24.624-7.369-44.554-7.369C22.497 165.487 2 169.974 2 175.51c0 5.534 20.497 10.022 45.783 10.022 0 0 68.409 1.063 50.983-30.94"/><path d="M92.337 197.684c-6.289-3.892-24.624-7.37-44.554-7.37C22.497 190.315 2 194.803 2 200.338c0 5.535 20.497 10.023 45.783 10.023 0 0 68.409 1.062 50.983-30.94m.114 22.738s10.63 11.085-7.44 21.714"/></g></symbol><use xlink:href="#i-memories" y="96" width="104" height="226"/><symbol id="i-next" viewBox="0 0 30 27"><title>Icon: Arrow</title><path d="M16.983.828l12.845 12.844-12.5 12.5-2.855-2.854 9.723-9.722-9.99-9.99L16.983.828zm3.2 10.708v3.928H0v-3.928h20.183z" fill-rule="evenodd"/></symbol><use xlink:href="#i-next" y="322" width="30" height="27"/><symbol id="i-orientation" viewBox="0 0 120 180"><title>Icon</title><g fill="none" fill-rule="evenodd"><rect stroke="red" stroke-width="4" fill="#141017" x="2" y="2" width="116" height="176" rx="10"/><path d="M60 60c16.568 0 30 13.432 30 30h-4c0-14.336-11.664-26-26-26S34 75.664 34 90s11.664 26 26 26v4c-16.568 0-30-13.432-30-30 0-16.568 13.432-30 30-30zm37.678 23.95l2.828 2.828-12.728 12.728L75.05 86.778l2.829-2.828 9.9 9.9 9.899-9.9z" fill="red"/></g></symbol><use xlink:href="#i-orientation" y="349" width="120" height="180"/><symbol id="i-pause" viewBox="0 0 16 20"><title>Icon: Pause</title><path d="M0 0h4v20H0zm12 0h4v20h-4z" fill-rule="evenodd"/></symbol><use xlink:href="#i-pause" y="529" width="16" height="20"/><symbol id="i-play-large" viewBox="0 0 220 220"><title>Icon: Play</title><g stroke="#FFF" stroke-width="4" fill="none" fill-rule="evenodd"><circle cx="110" cy="110" r="108"/><path d="M82 73.236v73.528L155.528 110 82 73.236z"/></g></symbol><use xlink:href="#i-play-large" y="549" width="220" height="220"/><symbol id="i-play-small" viewBox="0 0 25 24"><title>Icon: Play</title><g fill-rule="evenodd"><path d="M1 4h4v16H1zm4.072-.268l2-3.464 17.32 10-2 3.464z"/><path d="M5.072 20.268l2 3.464 17.32-10-2-3.464z"/></g></symbol><use xlink:href="#i-play-small" y="769" width="25" height="24"/><symbol id="i-spiral" viewBox="0 0 42 45"><title>Spiral</title><path d="M36.135 20.687c-2.516-1.556-9.85-2.947-17.822-2.947C8.2 17.74 0 19.534 0 21.749c0 2.214 8.199 4.009 18.313 4.009 0 0 27.364.425 20.393-12.376m-2.571-4.626C33.619 7.2 26.285 5.81 18.313 5.81 8.2 5.809 0 7.603 0 9.818c0 2.214 8.199 4.009 18.313 4.009 0 0 21.53.273 21.53-7.441C39.843-.087 19.558 0 19.558 0m16.577 32.618c-2.516-1.556-9.85-2.947-17.822-2.947C8.2 29.67 0 31.465 0 33.68c0 2.214 8.199 4.009 18.313 4.009 0 0 27.364.425 20.393-12.376m.046 9.095s4.252 4.435-2.976 8.686" transform="translate(1 1)" stroke-width="2" fill="none" fill-rule="evenodd"/></symbol><use xlink:href="#i-spiral" y="793" width="42" height="45"/><symbol id="i-zoom" viewBox="0 0 32 32"><title>Icon: Zoom</title><path d="M18 18v14h-4V18h4zm14-4v4H18v-4h14zm-18 0v4H0v-4h14zm4-14v14h-4V0h4z" fill-rule="evenodd"/></symbol><use xlink:href="#i-zoom" y="838" width="32" height="32"/></svg>