<svg xmlns="http://www.w3.org/2000/svg" width="24" height="24" viewBox="0 0 24 24">
  <defs>
    <style>
      .cls-1 {
        fill: #148b1f;
        fill-rule: evenodd;
      }
    </style>
  </defs>
  <path id="b" class="cls-1" d="M340.5,4444.01H322.5a1.49,1.49,0,1,0,0,2.98H340.5A1.49,1.49,0,1,0,340.5,4444.01Zm-5.7-8H328.1c-3.753,0-6.112,2.9-6.112,6.99h19.027C341.012,4438.91,338.558,4436.01,334.805,4436.01Zm-3.373,2.7a0.711,0.711,0,0,1,.679.74,3.425,3.425,0,0,1-.679,1.26,3.423,3.423,0,0,1-.68-1.26A0.712,0.712,0,0,1,331.432,4438.71Zm3.87,0.05a0.757,0.757,0,0,1,.441.93,3.209,3.209,0,0,1-1,.98,3.639,3.639,0,0,1-.3-1.43A0.673,0.673,0,0,1,335.3,4438.76Zm-7.693.01a0.659,0.659,0,0,1,.866.45,3.651,3.651,0,0,1-.257,1.44,3.15,3.15,0,0,1-1.025-.95A0.755,0.755,0,0,1,327.609,4438.77Zm-5.624,11.51a1.744,1.744,0,0,0,1.851,1.72h15.309a1.7,1.7,0,0,0,1.867-1.74v-2.25H321.985v2.27Z" transform="translate(-319.5 -4432)"/>
</svg>
