<svg xmlns="http://www.w3.org/2000/svg" width="24" height="24" viewBox="0 0 24 24">
  <defs>
    <style>
      .cls-1 {
        fill: #148b1f;
        fill-rule: evenodd;
      }
    </style>
  </defs>
  <path id="Rounded_Rectangle_2_copy_3" data-name="Rounded Rectangle 2 copy 3" class="cls-1" d="M326.937,4384H341.5a1.5,1.5,0,0,1,0,3H326.937A1.5,1.5,0,1,1,326.937,4384Zm-5.437,0h0.656a1.5,1.5,0,0,1,0,3H321.5A1.5,1.5,0,0,1,321.5,4384Zm5.437,5H341.5a1.5,1.5,0,0,1,0,3H326.937A1.5,1.5,0,1,1,326.937,4389Zm-5.437,0h0.656a1.5,1.5,0,0,1,0,3H321.5A1.5,1.5,0,0,1,321.5,4389Zm5.437,5H341.5a1.5,1.5,0,0,1,0,3H326.937A1.5,1.5,0,1,1,326.937,4394Zm-5.437,0h0.656a1.5,1.5,0,0,1,0,3H321.5A1.5,1.5,0,0,1,321.5,4394Z" transform="translate(-319.5 -4378.5)"/>
</svg>
